<svg xmlns="http://www.w3.org/2000/svg" viewBox="0 0 256 256" width="256" height="256" role="img" aria-label="imessage-unsent icon">
  <defs>
    <linearGradient id="bg" x1="0" y1="0" x2="1" y2="1">
      <stop offset="0" stop-color="#111827"/>
      <stop offset="1" stop-color="#080b12"/>
    </linearGradient>
    <linearGradient id="accent" x1="40" y1="32" x2="216" y2="224" gradientUnits="userSpaceOnUse">
      <stop offset="0" stop-color="#2dd4bf"/>
      <stop offset="0.55" stop-color="#60a5fa"/>
      <stop offset="1" stop-color="#a78bfa"/>
    </linearGradient>
  </defs>

  <rect width="256" height="256" rx="40" fill="url(#bg)"/>
  <rect x="14" y="14" width="228" height="228" rx="32" fill="none" stroke="url(#accent)" stroke-width="3"/>

  <g>
    <path d="M56 58h128c14 0 26 12 26 26v54c0 14-12 26-26 26h-55l-38 30v-30H56c-14 0-26-12-26-26V84c0-14 12-26 26-26Z" fill="#f8fafc"/>
    <path d="M70 91h104" stroke="#475569" stroke-width="12" stroke-linecap="round"/>
    <path d="M70 121h78" stroke="#94a3b8" stroke-width="12" stroke-linecap="round"/>
    <path d="M64 154 180 74" stroke="#ef4444" stroke-width="10" stroke-linecap="round"/>
  </g>

  <g transform="translate(140 142)">
    <rect x="0" y="0" width="66" height="18" rx="4" fill="#1f2937" stroke="#2dd4bf" stroke-width="2"/>
    <rect x="0" y="24" width="66" height="18" rx="4" fill="#1f2937" stroke="#60a5fa" stroke-width="2"/>
    <rect x="0" y="48" width="66" height="18" rx="4" fill="#1f2937" stroke="#a78bfa" stroke-width="2"/>
    <path d="M12 9h18M12 33h26M12 57h22" stroke="#e5e7eb" stroke-width="3" stroke-linecap="round"/>
  </g>

  <circle cx="189" cy="187" r="23" fill="none" stroke="#fbbf24" stroke-width="8"/>
  <path d="m206 204 20 20" stroke="#fbbf24" stroke-width="9" stroke-linecap="round"/>
</svg>
